<?xml version="1.0" encoding="UTF-8"?>
<svg xmlns="http://www.w3.org/2000/svg" xmlns:xlink="http://www.w3.org/1999/xlink" width="11pt" height="19pt" viewBox="0 0 11 19" version="1.1">
<g id="surface1">
<path style=" stroke:none;fill-rule:nonzero;fill:rgb(0%,0%,0%);fill-opacity:1;" d="M 7.992188 8.660156 L 3.867188 7.488281 C 3.386719 7.355469 3.054688 6.921875 3.054688 6.4375 C 3.054688 5.832031 3.558594 5.34375 4.183594 5.34375 L 6.714844 5.34375 C 7.179688 5.34375 7.640625 5.480469 8.019531 5.734375 C 8.253906 5.886719 8.566406 5.847656 8.765625 5.660156 L 10.09375 4.398438 C 10.367188 4.140625 10.328125 3.714844 10.027344 3.488281 C 9.089844 2.777344 7.921875 2.378906 6.722656 2.375 L 6.722656 0.59375 C 6.722656 0.265625 6.445312 0 6.109375 0 L 4.890625 0 C 4.554688 0 4.277344 0.265625 4.277344 0.59375 L 4.277344 2.375 L 4.183594 2.375 C 1.75 2.375 -0.207031 4.40625 0.0195312 6.8125 C 0.179688 8.523438 1.523438 9.914062 3.21875 10.398438 L 7.132812 11.511719 C 7.613281 11.648438 7.945312 12.078125 7.945312 12.5625 C 7.945312 13.167969 7.441406 13.65625 6.816406 13.65625 L 4.285156 13.65625 C 3.820312 13.65625 3.359375 13.519531 2.980469 13.265625 C 2.746094 13.113281 2.433594 13.152344 2.234375 13.339844 L 0.90625 14.601562 C 0.632812 14.859375 0.671875 15.285156 0.972656 15.511719 C 1.910156 16.222656 3.078125 16.621094 4.277344 16.625 L 4.277344 18.40625 C 4.277344 18.734375 4.554688 19 4.890625 19 L 6.109375 19 C 6.445312 19 6.722656 18.734375 6.722656 18.40625 L 6.722656 16.617188 C 8.503906 16.585938 10.171875 15.554688 10.757812 13.917969 C 11.582031 11.632812 10.203125 9.289062 7.992188 8.660156 Z M 7.992188 8.660156 "/>
</g>
</svg>
